<svg width="15.000000" height="5.246964" viewBox="0 0 15 5.24696" fill="none" xmlns="http://www.w3.org/2000/svg" xmlns:xlink="http://www.w3.org/1999/xlink">
	<path id="Icon color" d="M0 2.99L0 2.24C0 2.03 0.16 1.86 0.37 1.86L12 1.86L12 0.36C12 0.21 12.09 0.08 12.23 0.02C12.37 -0.03 12.53 0 12.64 0.1L14.89 2.35C15.03 2.5 15.03 2.74 14.89 2.88L12.64 5.13C12.53 5.24 12.37 5.27 12.23 5.21C12.09 5.15 12 5.02 12 4.86L12 3.36L0.37 3.36C0.16 3.36 0 3.2 0 2.99Z" fill="#707070" fill-opacity="1.000000" fill-rule="nonzero"/>
	<path id="Icon color" d="M0 2.24C0 2.03 0.16 1.86 0.37 1.86L12 1.86L12 0.36C12 0.21 12.09 0.08 12.23 0.02C12.37 -0.03 12.53 0 12.64 0.1L14.89 2.35C15.03 2.5 15.03 2.74 14.89 2.88L12.64 5.13C12.53 5.24 12.37 5.27 12.23 5.21C12.09 5.15 12 5.02 12 4.86L12 3.36L0.37 3.36C0.16 3.36 0 3.2 0 2.99L0 2.24Z" stroke="#979797" stroke-opacity="0" stroke-width="0.000000"/>
</svg>
