<svg xmlns="http://www.w3.org/2000/svg" viewBox="0 0 24 24" class="progressive_icon progressive_icon24">
  <path d="M16.492 8.764a.75.75 0 0 0-.214-1.039.757.757 0 0 0-1.039.215c-.773 1.108-4.175 6.693-4.175 6.693l-2.082-2.556a.75.75 0 1 0-1.164.946l1.9 2.347c.628.776.943 1.164 1.343 1.168a.845.845 0 0 0 .112-.007c.398-.049.666-.47 1.203-1.312l4.117-6.455Z" fill="#1C1C1E"></path>
  <path fill-rule="evenodd" clip-rule="evenodd" d="M12 22c5.523 0 10-4.477 10-10S17.523 2 12 2 2 6.477 2 12s4.477 10 10 10Zm8.5-10a8.5 8.5 0 1 1-17 0 8.5 8.5 0 0 1 17 0Z" fill="#1C1C1E"></path>
</svg>
