<svg width="18.530090" height="17.999939" viewBox="0 0 18.5301 17.9999" fill="none" xmlns="http://www.w3.org/2000/svg" xmlns:xlink="http://www.w3.org/1999/xlink">
	<desc>
			Created with Pixso.
	</desc>
	<defs/>
	<mask id="mask_96_408" fill="white">
		<path id="Icon color" d="M0 2.11765C0 0.948105 0.94812 0 2.11768 0C2.67926 0 3.2179 0.223106 3.61505 0.620247C4.01221 1.01738 4.23529 1.55602 4.23529 2.11765C4.23529 3.28719 3.28717 4.23529 2.11768 4.23529C0.94812 4.23529 0 3.28719 0 2.11765ZM18.5295 11.0223C18.566 8.72984 17.002 6.72095 14.7706 6.19406C13.2753 5.87208 11.7167 6.2943 10.5883 7.327L10.5883 6.88229C10.5883 6.58991 10.3513 6.35288 10.0589 6.35288L7.4118 6.35288C7.11945 6.35288 6.88245 6.58991 6.88245 6.88229L6.88245 17.4705C6.88245 17.7629 7.11945 17.9999 7.4118 17.9999L10.0589 17.9999C10.3513 17.9999 10.5883 17.7629 10.5883 17.4705L10.5883 11.4988C10.5621 10.4354 11.3033 9.50677 12.3459 9.29642C12.9668 9.18924 13.6031 9.36407 14.082 9.77342C14.561 10.1828 14.8328 10.7841 14.8236 11.4141L14.8236 17.4705C14.8236 17.7629 15.0606 17.9999 15.353 17.9999L18.0001 17.9999C18.2925 17.9999 18.5295 17.7629 18.5295 17.4705L18.5295 11.0223ZM4.23529 6.88229L4.23529 17.4705C4.23529 17.7629 3.99823 17.9999 3.70587 17.9999L1.05878 17.9999C0.766418 17.9999 0.529419 17.7629 0.529419 17.4705L0.529419 6.88229C0.529419 6.5899 0.766418 6.35288 1.05878 6.35288L3.70587 6.35288C3.99823 6.35288 4.23529 6.5899 4.23529 6.88229Z" clip-rule="evenodd" fill="" fill-opacity="1.000000" fill-rule="evenodd"/>
	</mask>
	<path id="Icon color" d="M0 2.11765C0 0.948105 0.94812 0 2.11768 0C2.67926 0 3.2179 0.223106 3.61505 0.620247C4.01221 1.01738 4.23529 1.55602 4.23529 2.11765C4.23529 3.28719 3.28717 4.23529 2.11768 4.23529C0.94812 4.23529 0 3.28719 0 2.11765ZM18.5295 11.0223C18.566 8.72984 17.002 6.72095 14.7706 6.19406C13.2753 5.87208 11.7167 6.2943 10.5883 7.327L10.5883 6.88229C10.5883 6.58991 10.3513 6.35288 10.0589 6.35288L7.4118 6.35288C7.11945 6.35288 6.88245 6.58991 6.88245 6.88229L6.88245 17.4705C6.88245 17.7629 7.11945 17.9999 7.4118 17.9999L10.0589 17.9999C10.3513 17.9999 10.5883 17.7629 10.5883 17.4705L10.5883 11.4988C10.5621 10.4354 11.3033 9.50677 12.3459 9.29642C12.9668 9.18924 13.6031 9.36407 14.082 9.77342C14.561 10.1828 14.8328 10.7841 14.8236 11.4141L14.8236 17.4705C14.8236 17.7629 15.0606 17.9999 15.353 17.9999L18.0001 17.9999C18.2925 17.9999 18.5295 17.7629 18.5295 17.4705L18.5295 11.0223ZM4.23529 6.88229L4.23529 17.4705C4.23529 17.7629 3.99823 17.9999 3.70587 17.9999L1.05878 17.9999C0.766418 17.9999 0.529419 17.7629 0.529419 17.4705L0.529419 6.88229C0.529419 6.5899 0.766418 6.35288 1.05878 6.35288L3.70587 6.35288C3.99823 6.35288 4.23529 6.5899 4.23529 6.88229Z" clip-rule="evenodd" fill="#707070" fill-opacity="1.000000" fill-rule="evenodd" mask="url(#mask_96_408)"/>
	<path id="Icon color" d="" fill="#979797" fill-opacity="0.000000" fill-rule="nonzero"/>
</svg>
